<svg xmlns="http://www.w3.org/2000/svg" xmlns:xlink="http://www.w3.org/1999/xlink" width="175" zoomAndPan="magnify" viewBox="0 0 131.25 31.5" height="42" preserveAspectRatio="xMidYMid meet" version="1.0"><defs><g/><clipPath id="48f9f2cae8"><path d="M 62.894531 17.300781 L 103.5 17.300781 L 103.5 26.160156 L 62.894531 26.160156 Z M 62.894531 17.300781 " clip-rule="nonzero"/></clipPath><clipPath id="50dfad1cc3"><path d="M 34.097656 16.335938 L 65.398438 16.335938 L 65.398438 26.671875 L 34.097656 26.671875 Z M 34.097656 16.335938 " clip-rule="nonzero"/></clipPath><clipPath id="96f9695681"><path d="M 24 1.152344 L 51.460938 1.152344 L 51.460938 29.945312 L 24 29.945312 Z M 24 1.152344 " clip-rule="nonzero"/></clipPath></defs><g clip-path="url(#48f9f2cae8)"><path fill="#ff1616" d="M 103.425781 17.390625 C 103.378906 17.335938 103.304688 17.300781 103.230469 17.300781 L 66.96875 17.300781 C 66.84375 17.300781 66.738281 17.390625 66.71875 17.515625 L 62.902344 40.628906 C 62.890625 40.703125 62.910156 40.777344 62.957031 40.835938 C 63.007812 40.894531 63.078125 40.925781 63.152344 40.925781 L 99.414062 40.925781 C 99.539062 40.925781 99.644531 40.835938 99.664062 40.710938 L 103.480469 17.597656 C 103.496094 17.523438 103.472656 17.449219 103.425781 17.390625 Z M 103.425781 17.390625 " fill-opacity="1" fill-rule="nonzero"/></g><g clip-path="url(#50dfad1cc3)"><path fill="#ffffff" d="M 65.28125 16.476562 C 65.207031 16.386719 65.09375 16.335938 64.976562 16.335938 L 8.28125 16.335938 C 8.085938 16.335938 7.917969 16.476562 7.886719 16.667969 L 1.917969 52.785156 C 1.898438 52.898438 1.933594 53.019531 2.007812 53.105469 C 2.082031 53.195312 2.195312 53.25 2.3125 53.25 L 59.011719 53.25 C 59.203125 53.25 59.371094 53.105469 59.402344 52.914062 L 65.371094 16.800781 C 65.390625 16.683594 65.355469 16.566406 65.28125 16.476562 Z M 65.28125 16.476562 " fill-opacity="1" fill-rule="nonzero"/></g><path fill="#f4f6fc" d="M 50.144531 2.476562 L 38.46875 2.476562 C 38.128906 2.769531 37.761719 3.09375 37.371094 3.4375 C 37.304688 3.496094 37.242188 3.554688 37.175781 3.613281 C 37.042969 3.734375 36.90625 3.855469 36.769531 3.976562 C 36.429688 4.285156 36.078125 4.613281 35.714844 4.953125 C 35.605469 5.054688 35.496094 5.160156 35.382812 5.265625 C 35.273438 5.371094 35.164062 5.472656 35.054688 5.582031 C 34.980469 5.652344 34.90625 5.722656 34.832031 5.796875 C 34.308594 6.304688 33.777344 6.835938 33.242188 7.390625 C 33.167969 7.46875 33.089844 7.546875 33.015625 7.628906 C 31.871094 8.824219 30.734375 10.109375 29.707031 11.433594 C 29.636719 11.523438 29.570312 11.613281 29.5 11.699219 C 29.257812 12.019531 29.023438 12.339844 28.796875 12.660156 C 28.679688 12.824219 28.566406 12.988281 28.457031 13.152344 C 28.359375 13.292969 28.261719 13.4375 28.167969 13.582031 C 28.050781 13.761719 27.933594 13.941406 27.824219 14.121094 C 27.765625 14.210938 27.710938 14.300781 27.65625 14.394531 C 27.582031 14.515625 27.511719 14.640625 27.441406 14.761719 C 27.375 14.878906 27.308594 14.992188 27.246094 15.105469 C 26.777344 15.953125 26.390625 16.792969 26.105469 17.617188 C 25.640625 18.964844 25.453125 20.171875 25.460938 21.25 L 25.460938 21.257812 C 25.460938 21.542969 25.476562 21.816406 25.503906 22.082031 C 25.503906 22.101562 25.507812 22.117188 25.507812 22.136719 C 25.527344 22.292969 25.546875 22.449219 25.574219 22.601562 C 25.578125 22.628906 25.582031 22.660156 25.589844 22.691406 C 25.628906 22.914062 25.675781 23.128906 25.730469 23.335938 C 25.789062 23.550781 25.855469 23.757812 25.925781 23.957031 C 25.96875 24.082031 26.015625 24.207031 26.066406 24.324219 C 26.25 24.761719 26.460938 25.164062 26.695312 25.53125 C 26.730469 25.59375 26.769531 25.652344 26.8125 25.710938 C 26.96875 25.949219 27.136719 26.171875 27.304688 26.378906 C 27.386719 26.480469 27.472656 26.578125 27.558594 26.675781 C 28.03125 27.199219 28.511719 27.613281 28.921875 27.921875 C 28.996094 27.976562 29.070312 28.03125 29.140625 28.078125 C 29.660156 28.445312 30.023438 28.621094 30.023438 28.621094 L 41.78125 28.621094 C 41.730469 28.609375 41.675781 28.597656 41.625 28.585938 C 45.714844 28.222656 48.925781 24.75 48.925781 20.523438 C 48.925781 17.660156 47.453125 15.144531 45.234375 13.707031 C 46.144531 12.027344 47.984375 8.980469 50.144531 7.378906 L 50.144531 2.476562 " fill-opacity="1" fill-rule="nonzero"/><g clip-path="url(#96f9695681)"><path fill="#f4f6fc" d="M 30.359375 27.292969 L 41.207031 27.292969 L 41.507812 27.265625 C 44.933594 26.960938 47.613281 24 47.613281 20.523438 C 47.613281 18.207031 46.457031 16.074219 44.527344 14.820312 L 43.496094 14.152344 L 44.085938 13.070312 C 44.96875 11.433594 46.710938 8.550781 48.832031 6.738281 L 48.832031 3.804688 L 38.953125 3.804688 C 38.714844 4.011719 38.476562 4.222656 38.238281 4.433594 L 38.042969 4.605469 C 37.914062 4.722656 37.78125 4.84375 37.648438 4.964844 C 37.296875 5.28125 36.949219 5.605469 36.609375 5.921875 C 36.5 6.023438 36.390625 6.128906 36.28125 6.230469 C 36.175781 6.332031 36.066406 6.4375 35.960938 6.539062 C 35.886719 6.609375 35.8125 6.679688 35.742188 6.75 C 35.203125 7.273438 34.675781 7.800781 34.183594 8.3125 C 34.105469 8.390625 34.03125 8.46875 33.957031 8.546875 C 32.738281 9.824219 31.65625 11.070312 30.738281 12.253906 C 30.671875 12.339844 30.605469 12.425781 30.539062 12.511719 C 30.308594 12.8125 30.082031 13.125 29.863281 13.433594 C 29.75 13.589844 29.644531 13.746094 29.535156 13.902344 C 29.441406 14.039062 29.351562 14.175781 29.261719 14.3125 C 29.148438 14.484375 29.039062 14.65625 28.933594 14.824219 C 28.882812 14.910156 28.828125 14.996094 28.777344 15.082031 C 28.707031 15.199219 28.640625 15.3125 28.574219 15.429688 C 28.511719 15.539062 28.449219 15.644531 28.390625 15.753906 C 27.945312 16.5625 27.59375 17.335938 27.34375 18.054688 C 26.960938 19.171875 26.765625 20.242188 26.769531 21.234375 L 26.769531 21.257812 C 26.773438 21.484375 26.785156 21.71875 26.808594 21.945312 L 26.8125 21.992188 C 26.828125 22.121094 26.84375 22.25 26.867188 22.378906 C 26.871094 22.40625 26.875 22.433594 26.878906 22.457031 C 26.910156 22.636719 26.953125 22.816406 27 22.992188 C 27.046875 23.164062 27.097656 23.339844 27.160156 23.507812 C 27.199219 23.621094 27.238281 23.722656 27.277344 23.8125 C 27.417969 24.160156 27.59375 24.496094 27.800781 24.816406 C 27.832031 24.871094 27.863281 24.921875 27.898438 24.96875 C 28.023438 25.160156 28.164062 25.351562 28.3125 25.53125 C 28.382812 25.617188 28.457031 25.703125 28.53125 25.785156 C 28.882812 26.175781 29.273438 26.535156 29.703125 26.855469 C 29.765625 26.902344 29.828125 26.949219 29.890625 26.992188 C 30.078125 27.121094 30.238281 27.222656 30.359375 27.292969 Z M 41.78125 29.945312 L 29.730469 29.945312 L 29.464844 29.816406 C 29.417969 29.796875 28.984375 29.585938 28.390625 29.167969 C 28.308594 29.109375 28.226562 29.050781 28.144531 28.988281 C 27.574219 28.5625 27.050781 28.085938 26.585938 27.566406 C 26.488281 27.453125 26.390625 27.339844 26.292969 27.222656 C 26.089844 26.976562 25.898438 26.714844 25.722656 26.453125 C 25.679688 26.386719 25.632812 26.316406 25.585938 26.246094 C 25.304688 25.796875 25.058594 25.324219 24.855469 24.839844 C 24.800781 24.703125 24.746094 24.566406 24.691406 24.410156 C 24.605469 24.171875 24.53125 23.925781 24.464844 23.679688 C 24.398438 23.433594 24.34375 23.179688 24.296875 22.925781 C 24.292969 22.890625 24.285156 22.855469 24.28125 22.816406 C 24.25 22.640625 24.226562 22.460938 24.207031 22.28125 L 24.199219 22.214844 C 24.167969 21.90625 24.148438 21.589844 24.148438 21.273438 L 24.148438 21.25 C 24.140625 19.957031 24.382812 18.585938 24.867188 17.179688 C 25.164062 16.316406 25.578125 15.402344 26.101562 14.460938 C 26.167969 14.339844 26.234375 14.21875 26.304688 14.09375 C 26.382812 13.964844 26.457031 13.832031 26.535156 13.703125 C 26.59375 13.609375 26.652344 13.511719 26.710938 13.417969 C 26.828125 13.230469 26.949219 13.039062 27.074219 12.847656 C 27.171875 12.699219 27.273438 12.550781 27.375 12.398438 C 27.492188 12.226562 27.609375 12.054688 27.730469 11.886719 C 27.96875 11.554688 28.214844 11.21875 28.460938 10.890625 C 28.53125 10.800781 28.601562 10.707031 28.671875 10.617188 C 29.648438 9.363281 30.789062 8.046875 32.070312 6.707031 C 32.148438 6.625 32.226562 6.542969 32.304688 6.464844 C 32.820312 5.929688 33.363281 5.382812 33.921875 4.839844 C 34 4.765625 34.074219 4.695312 34.148438 4.621094 C 34.261719 4.511719 34.371094 4.40625 34.484375 4.300781 C 34.597656 4.195312 34.710938 4.085938 34.820312 3.980469 C 35.171875 3.652344 35.535156 3.320312 35.894531 2.992188 C 36.035156 2.863281 36.171875 2.742188 36.304688 2.621094 L 36.503906 2.441406 C 36.875 2.113281 37.25 1.785156 37.621094 1.46875 L 37.988281 1.152344 L 51.457031 1.152344 L 51.457031 8.046875 L 50.921875 8.445312 C 49.332031 9.628906 47.890625 11.746094 46.949219 13.34375 C 49.027344 15.121094 50.238281 17.726562 50.238281 20.523438 C 50.238281 22.894531 49.363281 25.160156 47.773438 26.902344 C 46.207031 28.621094 44.082031 29.6875 41.785156 29.902344 L 41.78125 29.945312 " fill-opacity="1" fill-rule="nonzero"/></g><path fill="#f4f6fc" d="M 50.144531 2.476562 L 38.46875 2.476562 C 34.832031 5.601562 28.050781 11.976562 26.105469 17.617188 C 23.40625 25.449219 30.023438 28.621094 30.023438 28.621094 L 41.78125 28.621094 C 41.730469 28.609375 41.675781 28.597656 41.625 28.585938 C 45.714844 28.222656 48.925781 24.75 48.925781 20.523438 C 48.925781 17.660156 47.453125 15.144531 45.234375 13.707031 C 46.144531 12.027344 47.984375 8.980469 50.144531 7.378906 L 50.144531 2.476562 " fill-opacity="1" fill-rule="nonzero"/><path fill="#000000" d="M 26.105469 17.617188 C 23.40625 25.449219 30.023438 28.621094 30.023438 28.621094 L 41.78125 28.621094 C 36.992188 27.738281 36.121094 21.667969 38.125 16.386719 C 40.128906 11.105469 50.144531 2.476562 50.144531 2.476562 L 38.46875 2.476562 C 34.832031 5.601562 28.050781 11.976562 26.105469 17.617188 " fill-opacity="1" fill-rule="nonzero"/><path fill="#f4f6fc" d="M 33.28125 9.699219 L 40.191406 9.699219 L 42.164062 7 L 35.605469 7 L 33.28125 9.699219 " fill-opacity="1" fill-rule="nonzero"/><g fill="#000000" fill-opacity="1"><g transform="translate(49.717615, 23.437765)"><g><path d="M 3.320312 0 L 4.417969 0 L 2.734375 -4.675781 L 1.582031 -4.675781 L -0.101562 0 L 0.996094 0 L 1.285156 -0.878906 L 3.03125 -0.878906 Z M 1.558594 -1.738281 L 2.160156 -3.59375 L 2.757812 -1.738281 Z M 1.558594 -1.738281 "/></g></g></g><g fill="#000000" fill-opacity="1"><g transform="translate(54.033399, 23.437765)"><g><path d="M 4.535156 -4.675781 L 3.046875 -1.441406 L 1.574219 -4.675781 L 0.460938 -4.675781 L 0.460938 0 L 1.488281 0 L 1.488281 -2.789062 L 2.75 0 L 3.34375 0 L 4.613281 -2.78125 L 4.613281 0 L 5.640625 0 L 5.640625 -4.675781 Z M 4.535156 -4.675781 "/></g></g></g><g fill="#000000" fill-opacity="1"><g transform="translate(60.133145, 23.437765)"><g><path d="M 3.3125 -3.769531 L 3.3125 -4.675781 L 0.5 -4.675781 L 0.5 0 L 3.3125 0 L 3.3125 -0.902344 L 1.527344 -0.902344 L 1.527344 -1.886719 L 3.054688 -1.886719 L 3.054688 -2.789062 L 1.527344 -2.789062 L 1.527344 -3.769531 Z M 3.3125 -3.769531 "/></g></g></g><g fill="#f4f6fc" fill-opacity="1"><g transform="translate(63.761497, 23.437765)"><g/></g></g><g fill="#f4f6fc" fill-opacity="1"><g transform="translate(65.63115, 23.437765)"><g/></g></g><g fill="#f4f6fc" fill-opacity="1"><g transform="translate(67.500328, 23.437765)"><g><path d="M 3.34375 -4.675781 L -0.0390625 -4.675781 L -0.0390625 -3.761719 L 1.144531 -3.761719 L 1.144531 0 L 2.167969 0 L 2.167969 -3.761719 L 3.34375 -3.761719 Z M 3.34375 -4.675781 "/></g></g></g><g fill="#f4f6fc" fill-opacity="1"><g transform="translate(70.803383, 23.437765)"><g><path d="M 2.898438 -1.925781 C 3.453125 -2.089844 3.839844 -2.601562 3.839844 -3.242188 C 3.839844 -4.035156 3.25 -4.675781 2.445312 -4.675781 L 0.460938 -4.675781 L 0.460938 0 L 1.488281 0 L 1.488281 -1.808594 L 1.902344 -1.808594 L 3.054688 0 L 4.207031 0 Z M 2.289062 -2.65625 L 1.488281 -2.65625 L 1.488281 -3.761719 L 2.289062 -3.761719 C 2.617188 -3.761719 2.859375 -3.53125 2.859375 -3.210938 C 2.859375 -2.882812 2.617188 -2.65625 2.289062 -2.65625 Z M 2.289062 -2.65625 "/></g></g></g><g fill="#f4f6fc" fill-opacity="1"><g transform="translate(74.971153, 23.437765)"><g><path d="M 3.320312 0 L 4.417969 0 L 2.734375 -4.675781 L 1.582031 -4.675781 L -0.101562 0 L 0.996094 0 L 1.285156 -0.878906 L 3.03125 -0.878906 Z M 1.558594 -1.738281 L 2.160156 -3.59375 L 2.757812 -1.738281 Z M 1.558594 -1.738281 "/></g></g></g><g fill="#f4f6fc" fill-opacity="1"><g transform="translate(79.286938, 23.437765)"><g><path d="M 2.6875 0.0625 C 3.617188 0.0625 4.417969 -0.460938 4.816406 -1.222656 L 3.925781 -1.683594 C 3.699219 -1.238281 3.242188 -0.941406 2.6875 -0.941406 C 1.902344 -0.941406 1.300781 -1.550781 1.300781 -2.335938 C 1.300781 -3.125 1.902344 -3.730469 2.6875 -3.730469 C 3.242188 -3.730469 3.699219 -3.4375 3.925781 -2.992188 L 4.816406 -3.453125 C 4.417969 -4.214844 3.617188 -4.738281 2.6875 -4.738281 C 1.363281 -4.738281 0.289062 -3.660156 0.289062 -2.335938 C 0.289062 -1.011719 1.363281 0.0625 2.6875 0.0625 Z M 2.6875 0.0625 "/></g></g></g><g fill="#f4f6fc" fill-opacity="1"><g transform="translate(84.303842, 23.437765)"><g><path d="M 3.382812 0 L 4.753906 0 L 2.5 -2.59375 L 4.519531 -4.675781 L 3.195312 -4.675781 L 1.667969 -3.023438 L 1.488281 -3.023438 L 1.488281 -4.675781 L 0.460938 -4.675781 L 0.460938 0 L 1.488281 0 L 1.488281 -2.136719 L 1.636719 -2.136719 Z M 3.382812 0 "/></g></g></g><g fill="#f4f6fc" fill-opacity="1"><g transform="translate(88.892286, 23.437765)"><g><path d="M 3.3125 -3.769531 L 3.3125 -4.675781 L 0.5 -4.675781 L 0.5 0 L 3.3125 0 L 3.3125 -0.902344 L 1.527344 -0.902344 L 1.527344 -1.886719 L 3.054688 -1.886719 L 3.054688 -2.789062 L 1.527344 -2.789062 L 1.527344 -3.769531 Z M 3.3125 -3.769531 "/></g></g></g><g fill="#f4f6fc" fill-opacity="1"><g transform="translate(92.52253, 23.437765)"><g><path d="M 2.898438 -1.925781 C 3.453125 -2.089844 3.839844 -2.601562 3.839844 -3.242188 C 3.839844 -4.035156 3.25 -4.675781 2.445312 -4.675781 L 0.460938 -4.675781 L 0.460938 0 L 1.488281 0 L 1.488281 -1.808594 L 1.902344 -1.808594 L 3.054688 0 L 4.207031 0 Z M 2.289062 -2.65625 L 1.488281 -2.65625 L 1.488281 -3.761719 L 2.289062 -3.761719 C 2.617188 -3.761719 2.859375 -3.53125 2.859375 -3.210938 C 2.859375 -2.882812 2.617188 -2.65625 2.289062 -2.65625 Z M 2.289062 -2.65625 "/></g></g></g><g fill="#f4f6fc" fill-opacity="1"><g transform="translate(96.6903, 23.437765)"><g><path d="M 1.902344 0.0625 C 2.773438 0.0625 3.515625 -0.453125 3.515625 -1.324219 C 3.515625 -3.054688 1.363281 -2.625 1.363281 -3.4375 C 1.363281 -3.699219 1.566406 -3.824219 1.816406 -3.824219 C 2.082031 -3.824219 2.34375 -3.675781 2.578125 -3.421875 L 3.265625 -4.074219 C 2.921875 -4.472656 2.398438 -4.738281 1.824219 -4.738281 C 1.082031 -4.738281 0.328125 -4.292969 0.328125 -3.359375 C 0.328125 -1.769531 2.484375 -2.152344 2.484375 -1.332031 C 2.484375 -1.074219 2.265625 -0.902344 1.910156 -0.902344 C 1.480469 -0.902344 1.144531 -1.144531 0.972656 -1.511719 L 0.125 -0.980469 C 0.429688 -0.398438 1.082031 0.0625 1.902344 0.0625 Z M 1.902344 0.0625 "/></g></g></g><g fill="#000000" fill-opacity="1"><g transform="translate(37.54185, 25.621996)"><g><path d="M 6.144531 -5.859375 L 6.144531 -4.027344 L 9.085938 -4.027344 C 8.585938 -2.902344 7.480469 -2.15625 6.164062 -2.15625 C 4.363281 -2.15625 2.976562 -3.546875 2.976562 -5.34375 C 2.976562 -7.144531 4.363281 -8.53125 6.164062 -8.53125 C 7.429688 -8.53125 8.460938 -7.855469 8.996094 -6.839844 L 11.027344 -7.890625 C 10.101562 -9.636719 8.265625 -10.832031 6.164062 -10.832031 C 3.117188 -10.832031 0.675781 -8.371094 0.675781 -5.34375 C 0.675781 -2.316406 3.117188 0.140625 6.164062 0.140625 C 9.191406 0.140625 11.648438 -2.316406 11.648438 -5.34375 L 11.648438 -5.859375 Z M 6.144531 -5.859375 "/></g></g></g></svg>